<?xml version="1.0" encoding="UTF-8"?>
<svg version="1.1" xmlns="http://www.w3.org/2000/svg" width="500" height="500">
<path d="M0 0 C165 0 330 0 500 0 C500 165 500 330 500 500 C335 500 170 500 0 500 C0 335 0 170 0 0 Z " fill="#040404" transform="translate(0,0)"/>
<path d="M0 0 C165 0 330 0 500 0 C500 165 500 330 500 500 C335 500 170 500 0 500 C0 335 0 170 0 0 Z M42 46 C40.79236312 48.41527375 40.87467393 49.92377722 40.87415886 52.6223917 C40.87155111 53.60315569 40.86894336 54.58391969 40.86625659 55.5944038 C40.86848732 56.68034909 40.87071804 57.76629438 40.87301636 58.88514709 C40.87145637 60.03375369 40.86989638 61.18236029 40.86828911 62.36577314 C40.86497793 65.56762332 40.86618763 68.76943595 40.86927533 71.97128522 C40.87153142 75.42591708 40.86804699 78.88054373 40.86529541 82.33517456 C40.86082648 89.1373209 40.8618233 95.93945624 40.86470805 102.74160302 C40.86697674 108.32894615 40.86726821 113.91628623 40.86618423 119.50362968 C40.866031 120.30287581 40.86587777 121.10212193 40.86571989 121.92558764 C40.86540005 123.55116579 40.86507583 125.17674393 40.8647473 126.80232208 C40.86188449 142.1190261 40.86518224 157.43572417 40.87054767 172.75242721 C40.87492874 185.64900086 40.87424932 198.54556523 40.86962891 211.44213867 C40.85457253 255.16066494 40.87924517 298.8789037 40.98908806 342.59731007 C40.99638348 345.50944607 41.00333297 348.42158255 41.00993538 351.33372021 C41.04823143 368.22283567 41.10790991 385.1115874 41.21707535 402.00042534 C41.24589429 406.53546456 41.26590416 411.07040199 41.27782822 415.60551643 C41.291928 420.77208094 41.32466998 425.93816496 41.37316847 431.10451818 C41.38751309 432.95772187 41.39524135 434.81099098 41.39570665 436.66425014 C41.39746489 439.16164318 41.4235566 441.65761583 41.45608521 444.1547699 C41.44824503 445.22828338 41.44824503 445.22828338 41.44024646 446.323484 C41.54283811 451.29890234 42.88088082 454.16313052 46 458 C48.86902226 459.43451113 51.31750895 459.12815167 54.52592945 459.13142776 C55.20715375 459.1334804 55.88837805 459.13553303 56.59024552 459.13764787 C58.89561542 459.14334694 61.20092613 459.14185706 63.50630188 459.14044189 C65.16675978 459.14302387 66.82721705 459.14603655 68.48767346 459.1494453 C73.06833905 459.15753828 77.64898898 459.15930614 82.22966087 459.16004276 C87.16296873 459.16188933 92.09626839 459.16943464 97.02957153 459.17617798 C107.82489797 459.18977806 118.6202207 459.1957886 129.41555429 459.20018864 C136.15184054 459.20294819 142.88812535 459.20718501 149.62441063 459.21169281 C168.262682 459.22388759 186.90095221 459.23418654 205.53922749 459.2375679 C206.73284677 459.23778747 207.92646605 459.23800703 209.15625561 459.23823325 C210.35278616 459.23845153 211.5493167 459.23866981 212.78210574 459.2388947 C215.20686932 459.23933817 217.6316329 459.23978474 220.05639648 459.24023438 C221.25917168 459.2404558 222.46194688 459.24067723 223.70116981 459.24090537 C243.19749262 459.24485474 262.69377808 459.26231205 282.19008646 459.2855939 C302.19026489 459.30928534 322.19042457 459.32176874 342.19061726 459.32293582 C353.42660663 459.32385382 364.66254734 459.32963741 375.89852333 459.34775543 C385.46501524 459.36312666 395.03144347 459.36829453 404.59794537 459.36001733 C409.48154428 459.35610026 414.36501483 459.35709176 419.2485981 459.37107468 C423.71639304 459.38375044 428.18396232 459.38267211 432.65175667 459.37048396 C434.27088898 459.36851594 435.89003693 459.37165601 437.5091472 459.38032833 C439.7052237 459.39134933 441.90049373 459.38398439 444.09654713 459.3719368 C445.92840052 459.37283243 445.92840052 459.37283243 447.79726106 459.37374616 C451.30484576 458.96442578 453.1778613 458.07943911 456 456 C458.62366831 452.52764297 458.30381484 448.55792511 458.31289673 444.37884521 C458.3223446 443.60067877 458.33179246 442.82251232 458.34152663 442.02076507 C458.37088418 439.38591505 458.38589754 436.75117931 458.40087891 434.11621094 C458.41872998 432.19970256 458.43734197 430.28320114 458.45664597 428.36670685 C458.5072495 423.04099554 458.54438946 417.71526261 458.57870436 412.38942432 C458.60173455 408.95874494 458.62826622 405.52811021 458.6559639 402.09746552 C459.14024744 341.96370525 459.28908086 281.82699287 459.34104538 221.69149017 C459.34400796 218.32997126 459.34702906 214.96845241 459.35009766 211.60693359 C459.35084711 210.77318531 459.35159657 209.93943703 459.35236874 209.08042365 C459.36527147 195.30079549 459.39894099 181.5212888 459.43989949 167.74171856 C459.48224169 153.37478208 459.50586717 139.00790954 459.51111281 124.64091086 C459.5145068 116.65814535 459.52604843 108.67558115 459.55921555 100.69287872 C459.5870901 93.97980668 459.59826358 87.26697913 459.58702008 80.5538536 C459.58182757 77.1417591 459.58476744 73.73017919 459.60948563 70.3181591 C459.63201115 66.6269742 459.62396251 62.93709995 459.60800171 59.24591064 C459.6218838 58.16870388 459.63576588 57.09149712 459.65006864 55.98164773 C459.60614424 49.96419631 459.60614424 49.96419631 456.58699989 44.85963058 C452.54077144 41.95105289 450.42780669 41.87304644 445.44283581 41.86577892 C444.41593424 41.86225058 444.41593424 41.86225058 443.36828718 41.85865095 C441.05143261 41.85194131 438.73463387 41.85241976 436.41777039 41.85282898 C434.74906272 41.84953158 433.08035585 41.84580628 431.41165 41.8416875 C426.80818317 41.83164537 422.20472939 41.82794716 417.60125315 41.82529819 C412.64340382 41.82140172 407.68556488 41.811823 402.72772217 41.80308533 C390.74622797 41.78330306 378.76473291 41.77325282 366.78322646 41.76435754 C361.14589219 41.75997783 355.50855887 41.75461023 349.87122536 41.74936867 C331.14030877 41.7323552 312.40939278 41.71785969 293.67846966 41.71061993 C288.81535021 41.70870992 283.95223076 41.70678961 279.08911133 41.70483398 C277.8803549 41.70435024 276.67159847 41.7038665 275.42621306 41.7033681 C255.83288042 41.69506283 236.23960873 41.66971806 216.64630272 41.63725331 C196.54668346 41.60422014 176.44709521 41.58617459 156.34744865 41.58297569 C145.05555017 41.5808072 133.7637406 41.57200904 122.47186852 41.54651451 C112.85778774 41.52485864 103.24381745 41.51673184 93.62971505 41.52648129 C88.72177454 41.53104077 83.81406225 41.52904448 78.90615273 41.50971985 C74.41609717 41.49219266 69.92643808 41.49300028 65.43637893 41.50861714 C63.80916867 41.51100918 62.18193169 41.50658769 60.55476245 41.49478849 C58.34758428 41.47977058 56.14182937 41.48926987 53.93468761 41.50501537 C52.70737649 41.50403856 51.48006537 41.50306176 50.215563 41.50205535 C46.38504599 42.09522844 44.7363042 43.30870178 42 46 Z " fill="#FDFDFD" transform="translate(0,0)"/>
<path d="M0 0 C54.78 0 109.56 0 166 0 C166 54.78 166 109.56 166 166 C111.22 166 56.44 166 0 166 C0 111.22 0 56.44 0 0 Z " fill="#FEFEFE" transform="translate(167,167)"/>
<path d="M0 0 C55.44 0 110.88 0 168 0 C168 27.39 168 54.78 168 83 C112.56 83 57.12 83 0 83 C0 55.61 0 28.22 0 0 Z " fill="#FDFDFD" transform="translate(166,355)"/>
<path d="M0 0 C54.78 0 109.56 0 166 0 C166 27.39 166 54.78 166 83 C111.22 83 56.44 83 0 83 C0 55.61 0 28.22 0 0 Z " fill="#FDFDFD" transform="translate(167,63)"/>
<path d="M0 0 C27.06 0 54.12 0 82 0 C82 54.78 82 109.56 82 166 C54.94 166 27.88 166 0 166 C0 111.22 0 56.44 0 0 Z " fill="#FEFEFE" transform="translate(355,167)"/>
<path d="M0 0 C27.06 0 54.12 0 82 0 C82 54.78 82 109.56 82 166 C54.94 166 27.88 166 0 166 C0 111.22 0 56.44 0 0 Z " fill="#FEFEFE" transform="translate(63,167)"/>
<path d="M0 0 C0 17.49 0 34.98 0 53 C-0.66 53 -1.32 53 -2 53 C-3.39477539 51.58398438 -3.39477539 51.58398438 -5.03515625 49.59375 C-9.25231373 44.63418911 -13.81233307 40.07671635 -18.4375 35.5 C-19.26443359 34.67757812 -20.09136719 33.85515625 -20.94335938 33.0078125 C-22.95994959 31.00287887 -24.97885236 29.00033747 -27 27 C-21.90160256 20.83626579 -16.35339242 15.20402299 -10.6875 9.5625 C-9.30981445 8.17901367 -9.30981445 8.17901367 -7.90429688 6.76757812 C-7.03224609 5.89681641 -6.16019531 5.02605469 -5.26171875 4.12890625 C-4.46725342 3.33556885 -3.67278809 2.54223145 -2.85424805 1.72485352 C-1 0 -1 0 0 0 Z " fill="#F8F8F8" transform="translate(146,78)"/>
<path d="M0 0 C0 17.49 0 34.98 0 53 C-7.86253203 46.26068683 -7.86253203 46.26068683 -11.55078125 42.51171875 C-12.33130859 41.72345703 -13.11183594 40.93519531 -13.91601562 40.12304688 C-14.70685547 39.31931641 -15.49769531 38.51558594 -16.3125 37.6875 C-17.9104482 36.064127 -19.51059713 34.44291636 -21.11328125 32.82421875 C-21.81235596 32.11354248 -22.51143066 31.40286621 -23.23168945 30.6706543 C-24.90825235 28.92538572 -24.90825235 28.92538572 -27 28 C-25.39600374 24.00746337 -22.59822732 21.32549792 -19.58984375 18.359375 C-18.79858849 17.56880707 -18.79858849 17.56880707 -17.99134827 16.76226807 C-16.87998078 15.65391275 -15.76619274 14.54797989 -14.65014648 13.44433594 C-12.93476216 11.74729143 -11.22759829 10.04229672 -9.52148438 8.3359375 C-8.44057649 7.25994197 -7.35921217 6.18440473 -6.27734375 5.109375 C-5.50704079 4.34074127 -5.50704079 4.34074127 -4.72117615 3.55657959 C-1.11606989 0 -1.11606989 0 0 0 Z " fill="#FBFBFB" transform="translate(438,78)"/>
<path d="M0 0 C5.89279274 5.0509652 11.47565751 10.19259059 17 15.625 C17.88300781 16.470625 18.76601563 17.31625 19.67578125 18.1875 C20.50464844 19.00476563 21.33351563 19.82203125 22.1875 20.6640625 C22.94417969 21.40092285 23.70085937 22.1377832 24.48046875 22.89697266 C26 25 26 25 26.04296875 26.95019531 C24.54397171 29.89625785 22.48877874 31.82637046 20.125 34.1328125 C19.64047363 34.61072235 19.15594727 35.0886322 18.65673828 35.58102417 C17.11144167 37.10296093 15.55633236 38.61435724 14 40.125 C12.4454518 41.64447959 10.89306623 43.16608158 9.34326172 44.69039917 C7.9387598 46.07017518 6.52811425 47.44368909 5.1171875 48.81689453 C2.96721878 50.81418725 2.96721878 50.81418725 2 53 C1.34 53 0.68 53 0 53 C0 35.51 0 18.02 0 0 Z " fill="#F8F8F8" transform="translate(354,78)"/>
<path d="M0 0 C5.89279274 5.0509652 11.47565751 10.19259059 17 15.625 C17.88300781 16.470625 18.76601562 17.31625 19.67578125 18.1875 C20.50464844 19.00476563 21.33351563 19.82203125 22.1875 20.6640625 C22.94417969 21.40092285 23.70085937 22.1377832 24.48046875 22.89697266 C26 25 26 25 26.0703125 26.91845703 C24.4830394 30.0053846 22.14426829 32.24256554 19.6875 34.640625 C19.15858154 35.16767029 18.62966309 35.69471558 18.0847168 36.23773193 C16.96850194 37.34723699 15.84870121 38.4531446 14.72558594 39.55566406 C12.9992873 41.25069979 11.2839903 42.956277 9.5703125 44.6640625 C8.48499765 45.74021165 7.39908081 46.8157541 6.3125 47.890625 C5.79582764 48.40304749 5.27915527 48.91546997 4.74682617 49.44342041 C1.11716933 53 1.11716933 53 0 53 C0 35.51 0 18.02 0 0 Z " fill="#FBFBFB" transform="translate(62,78)"/>
<path d="M0 0 C17.16 0 34.32 0 52 0 C48.4476663 4.14438932 45.09346755 8.03046031 41.2578125 11.83984375 C40.41992188 12.67451172 39.58203125 13.50917969 38.71875 14.36914062 C37.8628125 15.21669922 37.006875 16.06425781 36.125 16.9375 C35.24585938 17.81212891 34.36671875 18.68675781 33.4609375 19.58789062 C31.3095654 21.72757048 29.15588208 23.86486597 27 26 C24.10616328 24.67912396 21.93310911 23.22456421 19.609375 21.05859375 C18.98554932 20.47875732 18.36172363 19.8989209 17.71899414 19.30151367 C16.74434204 18.3788269 16.74434204 18.3788269 15.75 17.4375 C15.08411865 16.81141846 14.4182373 16.18533691 13.73217773 15.5402832 C8.89277645 10.94760343 4.10063779 6.27973492 0 1 C0 0.67 0 0.34 0 0 Z " fill="#FAFAFA" transform="translate(78,355)"/>
<path d="M0 0 C17.16 0 34.32 0 52 0 C45.26068683 7.86253203 45.26068683 7.86253203 41.51171875 11.55078125 C40.72345703 12.33130859 39.93519531 13.11183594 39.12304688 13.91601562 C38.31931641 14.70685547 37.51558594 15.49769531 36.6875 16.3125 C35.064127 17.9104482 33.44291636 19.51059713 31.82421875 21.11328125 C31.11354248 21.81235596 30.40286621 22.51143066 29.6706543 23.23168945 C27.92538572 24.90825235 27.92538572 24.90825235 27 27 C23.6845186 25.89483953 23.027423 25.12069537 20.87109375 22.49609375 C16.84905831 17.754515 12.49437502 13.41842172 8.0625 9.0625 C6.53031272 7.55565907 5.00023481 6.04666913 3.47265625 4.53515625 C2.80500244 3.879104 2.13734863 3.22305176 1.44946289 2.54711914 C0 1 0 1 0 0 Z " fill="#FCFCFC" transform="translate(370,63)"/>
<path d="M0 0 C3.89559588 1.58423189 6.52114408 4.24747257 9.421875 7.19140625 C9.92672424 7.69671371 10.43157349 8.20202118 10.95172119 8.72264099 C12.01299872 9.78692989 13.07185455 10.85363849 14.12841797 11.92260742 C15.75303325 13.5655675 17.38559778 15.20029617 19.01953125 16.83398438 C20.04995399 17.86931932 21.07991835 18.9051107 22.109375 19.94140625 C22.59992371 20.43306778 23.09047241 20.92472931 23.59588623 21.43128967 C27 24.8839275 27 24.8839275 27 26 C9.84 26 -7.32 26 -25 26 C-21.4476663 21.85561068 -18.09346755 17.96953969 -14.2578125 14.16015625 C-13.41992188 13.32548828 -12.58203125 12.49082031 -11.71875 11.63085938 C-10.8628125 10.78330078 -10.006875 9.93574219 -9.125 9.0625 C-8.24585938 8.18787109 -7.36671875 7.31324219 -6.4609375 6.41210938 C-4.3095654 4.27242952 -2.15588208 2.13513403 0 0 Z " fill="#FAFAFA" transform="translate(395,412)"/>
<path d="M0 0 C3.89559588 1.58423189 6.52114408 4.24747257 9.421875 7.19140625 C9.92672424 7.69671371 10.43157349 8.20202118 10.95172119 8.72264099 C12.01299872 9.78692989 13.07185455 10.85363849 14.12841797 11.92260742 C15.75303325 13.5655675 17.38559778 15.20029617 19.01953125 16.83398438 C20.04995399 17.86931932 21.07991835 18.9051107 22.109375 19.94140625 C22.59992371 20.43306778 23.09047241 20.92472931 23.59588623 21.43128967 C27 24.8839275 27 24.8839275 27 26 C9.84 26 -7.32 26 -25 26 C-21.4476663 21.85561068 -18.09346755 17.96953969 -14.2578125 14.16015625 C-13.41992188 13.32548828 -12.58203125 12.49082031 -11.71875 11.63085938 C-10.8628125 10.78330078 -10.006875 9.93574219 -9.125 9.0625 C-8.24585937 8.18787109 -7.36671875 7.31324219 -6.4609375 6.41210938 C-4.3095654 4.27242952 -2.15588208 2.13513403 0 0 Z " fill="#FAFAFA" transform="translate(103,412)"/>
<path d="M0 0 C17.16 0 34.32 0 52 0 C48.4476663 4.14438932 45.09346755 8.03046031 41.2578125 11.83984375 C40.41992188 12.67451172 39.58203125 13.50917969 38.71875 14.36914062 C37.8628125 15.21669922 37.006875 16.06425781 36.125 16.9375 C35.24585938 17.81212891 34.36671875 18.68675781 33.4609375 19.58789062 C31.3095654 21.72757048 29.15588208 23.86486597 27 26 C23.10440412 24.41576811 20.47885592 21.75252743 17.578125 18.80859375 C17.07327576 18.30328629 16.56842651 17.79797882 16.04827881 17.27735901 C14.98700128 16.21307011 13.92814545 15.14636151 12.87158203 14.07739258 C11.24696675 12.4344325 9.61440222 10.79970383 7.98046875 9.16601562 C6.95004601 8.13068068 5.92008165 7.0948893 4.890625 6.05859375 C4.40007629 5.56693222 3.90952759 5.07527069 3.40411377 4.56871033 C0 1.1160725 0 1.1160725 0 0 Z " fill="#FCFCFC" transform="translate(370,355)"/>
<path d="M0 0 C3.89559588 1.58423189 6.52114408 4.24747257 9.421875 7.19140625 C9.92672424 7.69671371 10.43157349 8.20202118 10.95172119 8.72264099 C12.01299872 9.78692989 13.07185455 10.85363849 14.12841797 11.92260742 C15.75303325 13.5655675 17.38559778 15.20029617 19.01953125 16.83398438 C20.04995399 17.86931932 21.07991835 18.9051107 22.109375 19.94140625 C22.59992371 20.43306778 23.09047241 20.92472931 23.59588623 21.43128967 C27 24.8839275 27 24.8839275 27 26 C9.84 26 -7.32 26 -25 26 C-21.4476663 21.85561068 -18.09346755 17.96953969 -14.2578125 14.16015625 C-13.41992188 13.32548828 -12.58203125 12.49082031 -11.71875 11.63085938 C-10.8628125 10.78330078 -10.006875 9.93574219 -9.125 9.0625 C-8.24585938 8.18787109 -7.36671875 7.31324219 -6.4609375 6.41210938 C-4.3095654 4.27242952 -2.15588208 2.13513403 0 0 Z " fill="#F7F7F7" transform="translate(395,120)"/>
<path d="M0 0 C3.89559588 1.58423189 6.52114408 4.24747257 9.421875 7.19140625 C9.92672424 7.69671371 10.43157349 8.20202118 10.95172119 8.72264099 C12.01299872 9.78692989 13.07185455 10.85363849 14.12841797 11.92260742 C15.75303325 13.5655675 17.38559778 15.20029617 19.01953125 16.83398438 C20.04995399 17.86931932 21.07991835 18.9051107 22.109375 19.94140625 C22.59992371 20.43306778 23.09047241 20.92472931 23.59588623 21.43128967 C27 24.8839275 27 24.8839275 27 26 C9.84 26 -7.32 26 -25 26 C-21.4476663 21.85561068 -18.09346755 17.96953969 -14.2578125 14.16015625 C-13.41992188 13.32548828 -12.58203125 12.49082031 -11.71875 11.63085938 C-10.8628125 10.78330078 -10.006875 9.93574219 -9.125 9.0625 C-8.24585937 8.18787109 -7.36671875 7.31324219 -6.4609375 6.41210938 C-4.3095654 4.27242952 -2.15588208 2.13513403 0 0 Z " fill="#F7F7F7" transform="translate(103,120)"/>
<path d="M0 0 C17.16 0 34.32 0 52 0 C48.4476663 4.14438932 45.09346755 8.03046031 41.2578125 11.83984375 C40.41992188 12.67451172 39.58203125 13.50917969 38.71875 14.36914062 C37.8628125 15.21669922 37.006875 16.06425781 36.125 16.9375 C35.24585938 17.81212891 34.36671875 18.68675781 33.4609375 19.58789062 C31.3095654 21.72757048 29.15588208 23.86486597 27 26 C23.10440412 24.41576811 20.47885592 21.75252743 17.578125 18.80859375 C17.07327576 18.30328629 16.56842651 17.79797882 16.04827881 17.27735901 C14.98700128 16.21307011 13.92814545 15.14636151 12.87158203 14.07739258 C11.24696675 12.4344325 9.61440222 10.79970383 7.98046875 9.16601562 C6.95004601 8.13068068 5.92008165 7.0948893 4.890625 6.05859375 C4.40007629 5.56693222 3.90952759 5.07527069 3.40411377 4.56871033 C0 1.1160725 0 1.1160725 0 0 Z " fill="#FCFCFC" transform="translate(78,63)"/>
<path d="M0 0 C0 16.83 0 33.66 0 51 C-5.0758642 47.19310185 -9.23140181 44.0270998 -13.5625 39.625 C-14.02503174 39.15602295 -14.48756348 38.6870459 -14.96411133 38.20385742 C-18.8078403 34.27451904 -22.44994102 30.19386953 -26 26 C-21.04455862 20.02265091 -15.68810448 14.53812065 -10.1875 9.0625 C-9.31673828 8.18787109 -8.44597656 7.31324219 -7.54882812 6.41210938 C-6.72189453 5.58646484 -5.89496094 4.76082031 -5.04296875 3.91015625 C-4.29039795 3.15871338 -3.53782715 2.40727051 -2.76245117 1.63305664 C-1 0 -1 0 0 0 Z " fill="#F9F9F9" transform="translate(145,371)"/>
<path d="M0 0 C0 16.83 0 33.66 0 51 C-4.14438932 47.4476663 -8.03046031 44.09346755 -11.83984375 40.2578125 C-12.67451172 39.41992188 -13.50917969 38.58203125 -14.36914062 37.71875 C-15.21669922 36.8628125 -16.06425781 36.006875 -16.9375 35.125 C-17.81212891 34.24585938 -18.68675781 33.36671875 -19.58789062 32.4609375 C-21.72757048 30.3095654 -23.86486597 28.15588208 -26 26 C-21.04455862 20.02265091 -15.68810448 14.53812065 -10.1875 9.0625 C-9.31673828 8.18787109 -8.44597656 7.31324219 -7.54882812 6.41210938 C-6.72189453 5.58646484 -5.89496094 4.76082031 -5.04296875 3.91015625 C-4.29039795 3.15871338 -3.53782715 2.40727051 -2.76245117 1.63305664 C-1 0 -1 0 0 0 Z " fill="#FBFBFB" transform="translate(437,371)"/>
<path d="M0 0 C4.14438932 3.5523337 8.03046031 6.90653245 11.83984375 10.7421875 C12.67451172 11.58007812 13.50917969 12.41796875 14.36914062 13.28125 C15.21669922 14.1371875 16.06425781 14.993125 16.9375 15.875 C17.81212891 16.75414062 18.68675781 17.63328125 19.58789062 18.5390625 C21.72757048 20.6904346 23.86486597 22.84411792 26 25 C21.04455862 30.97734909 15.68810448 36.46187935 10.1875 41.9375 C9.31673828 42.81212891 8.44597656 43.68675781 7.54882812 44.58789062 C6.30842773 45.82635742 6.30842773 45.82635742 5.04296875 47.08984375 C4.29039795 47.84128662 3.53782715 48.59272949 2.76245117 49.36694336 C1 51 1 51 0 51 C0 34.17 0 17.34 0 0 Z " fill="#FBFBFB" transform="translate(355,371)"/>
<path d="M0 0 C4.14438932 3.5523337 8.03046031 6.90653245 11.83984375 10.7421875 C12.67451172 11.58007812 13.50917969 12.41796875 14.36914062 13.28125 C15.21669922 14.1371875 16.06425781 14.993125 16.9375 15.875 C17.81212891 16.75414062 18.68675781 17.63328125 19.58789062 18.5390625 C21.72757048 20.6904346 23.86486597 22.84411792 26 25 C21.04455862 30.97734909 15.68810448 36.46187935 10.1875 41.9375 C9.31673828 42.81212891 8.44597656 43.68675781 7.54882812 44.58789062 C6.30842773 45.82635742 6.30842773 45.82635742 5.04296875 47.08984375 C4.29039795 47.84128662 3.53782715 48.59272949 2.76245117 49.36694336 C1 51 1 51 0 51 C0 34.17 0 17.34 0 0 Z " fill="#FBFBFB" transform="translate(63,371)"/>
</svg>
